<svg xmlns="http://www.w3.org/2000/svg" xmlns:xlink="http://www.w3.org/1999/xlink" width="1920" height="450" viewBox="0 0 1920 450"><rect width="100%" height="100%" fill="#DDDDDD"/><path d="M457.17 286.60L486.94 286.60L486.94 307.78L395.34 307.78L395.34 286.60L428.89 286.60L428.89 190.08Q428.89 184.35 429.24 178.28L429.24 178.28L405.42 198.21Q403.36 199.81 401.35 200.21Q399.35 200.61 397.58 200.27Q395.80 199.92 394.43 199.07Q393.05 198.21 392.37 197.18L392.37 197.18L383.44 184.93L433.93 141.99L457.17 141.99L457.17 286.60ZM539.04 191.91L539.04 191.91Q539.04 205.76 546.20 213.03Q553.35 220.31 566.52 220.31L566.52 220.31Q573.39 220.31 578.77 218.13Q584.15 215.95 587.82 212.18Q591.48 208.40 593.37 203.25Q595.26 198.09 595.26 192.14L595.26 192.14Q595.26 185.38 593.20 180.06Q591.14 174.73 587.36 171.07Q583.58 167.41 578.37 165.46Q573.16 163.51 566.98 163.51L566.98 163.51Q560.57 163.51 555.41 165.63Q550.26 167.75 546.60 171.53Q542.93 175.31 540.99 180.52Q539.04 185.73 539.04 191.91ZM525.19 307.78L576.60 243.55Q578.54 241.14 580.26 238.85Q581.98 236.56 583.58 234.27L583.58 234.27Q577.86 237.94 570.99 239.83Q564.12 241.72 556.56 241.72L556.56 241.72Q547.97 241.72 539.73 238.74Q531.48 235.76 525.07 229.75Q518.66 223.74 514.71 214.87Q510.76 205.99 510.76 194.08L510.76 194.08Q510.76 182.98 514.88 173.25Q519.00 163.51 526.45 156.19Q533.89 148.86 544.31 144.62Q554.73 140.38 567.32 140.38L567.32 140.38Q580.03 140.38 590.16 144.39Q600.30 148.40 607.45 155.61Q614.61 162.83 618.45 172.90Q622.28 182.98 622.28 195.00L622.28 195.00Q622.28 202.67 620.97 209.54Q619.65 216.41 617.24 222.77Q614.84 229.12 611.40 235.19Q607.97 241.26 603.73 247.21L603.73 247.21L565.83 301.26Q563.89 304.00 559.99 305.89Q556.10 307.78 551.18 307.78L551.18 307.78L525.19 307.78ZM703.92 281.45L746.40 281.45Q750.98 281.45 753.67 284.02Q756.36 286.60 756.36 290.84L756.36 290.84L756.36 307.78L642.78 307.78L642.78 298.39Q642.78 295.53 643.98 292.38Q645.18 289.23 647.82 286.72L647.82 286.72L698.08 236.34Q704.38 229.92 709.36 224.08Q714.34 218.24 717.66 212.52Q720.98 206.79 722.76 200.90Q724.53 195.00 724.53 188.47L724.53 188.47Q724.53 182.52 722.81 178.00Q721.10 173.47 717.95 170.38Q714.80 167.29 710.39 165.75Q705.98 164.20 700.49 164.20L700.49 164.20Q695.45 164.20 691.15 165.63Q686.86 167.06 683.54 169.64Q680.22 172.22 677.93 175.65Q675.64 179.09 674.49 183.21L674.49 183.21Q672.55 188.47 669.46 190.19Q666.36 191.91 660.53 190.99L660.53 190.99L645.64 188.36Q647.36 176.45 652.28 167.46Q657.20 158.48 664.59 152.46Q671.98 146.45 681.54 143.42Q691.10 140.38 702.09 140.38L702.09 140.38Q713.54 140.38 723.04 143.76Q732.55 147.14 739.30 153.32Q746.06 159.51 749.84 168.21Q753.61 176.91 753.61 187.56L753.61 187.56Q753.61 196.72 750.92 204.50Q748.23 212.29 743.71 219.39Q739.19 226.49 733.12 233.13Q727.05 239.77 720.41 246.64L720.41 246.64L683.08 284.77Q688.46 283.17 693.79 282.31Q699.11 281.45 703.92 281.45L703.92 281.45ZM893.99 225L893.99 225Q893.99 246.64 889.35 262.61Q884.72 278.59 876.53 289.01Q868.34 299.43 857.18 304.52Q846.02 309.62 833.08 309.62L833.08 309.62Q820.14 309.62 809.09 304.52Q798.04 299.43 789.91 289.01Q781.78 278.59 777.20 262.61Q772.62 246.64 772.62 225L772.62 225Q772.62 203.25 777.20 187.33Q781.78 171.41 789.91 160.99Q798.04 150.57 809.09 145.48Q820.14 140.38 833.08 140.38L833.08 140.38Q846.02 140.38 857.18 145.48Q868.34 150.57 876.53 160.99Q884.72 171.41 889.35 187.33Q893.99 203.25 893.99 225ZM864.79 225L864.79 225Q864.79 207.02 862.16 195.23Q859.53 183.44 855.12 176.45Q850.71 169.47 844.98 166.66Q839.26 163.86 833.08 163.86L833.08 163.86Q827.01 163.86 821.34 166.66Q815.67 169.47 811.32 176.45Q806.97 183.44 804.39 195.23Q801.82 207.02 801.82 225L801.82 225Q801.82 242.98 804.39 254.77Q806.97 266.56 811.32 273.55Q815.67 280.53 821.34 283.34Q827.01 286.14 833.08 286.14L833.08 286.14Q839.26 286.14 844.98 283.34Q850.71 280.53 855.12 273.55Q859.53 266.56 862.16 254.77Q864.79 242.98 864.79 225ZM1075.82 269.88L1060.82 284.65L1022.00 245.84L982.84 284.88L967.84 270.11L1007.00 230.84L969.68 193.51L984.56 178.63L1021.89 215.95L1058.99 178.86L1074.10 193.74L1036.89 230.95L1075.82 269.88ZM1174.97 245.38L1225.35 245.38L1225.35 191.22Q1225.35 183.55 1226.38 174.28L1226.38 174.28L1174.97 245.38ZM1249.97 245.38L1270.81 245.38L1270.81 261.75Q1270.81 264.04 1269.32 265.70Q1267.83 267.37 1265.09 267.37L1265.09 267.37L1249.97 267.37L1249.97 307.78L1225.35 307.78L1225.35 267.37L1155.51 267.37Q1152.65 267.37 1150.47 265.59Q1148.30 263.82 1147.72 261.18L1147.72 261.18L1144.75 246.87L1223.18 142.10L1249.97 142.10L1249.97 245.38ZM1328.98 167.86L1323.14 202.33Q1328.63 201.18 1333.67 200.67Q1338.71 200.15 1343.40 200.15L1343.40 200.15Q1356.46 200.15 1366.42 204.05Q1376.38 207.94 1383.13 214.81Q1389.89 221.68 1393.33 230.90Q1396.76 240.11 1396.76 250.76L1396.76 250.76Q1396.76 263.93 1392.12 274.81Q1387.49 285.69 1379.24 293.41Q1371.00 301.14 1359.72 305.38Q1348.44 309.62 1335.16 309.62L1335.16 309.62Q1327.37 309.62 1320.39 308.01Q1313.40 306.41 1307.28 303.72Q1301.15 301.03 1295.94 297.54Q1290.73 294.04 1286.61 290.15L1286.61 290.15L1295.31 278.13Q1298.06 274.24 1302.53 274.24L1302.53 274.24Q1305.39 274.24 1308.37 276.07Q1311.34 277.90 1315.18 280.07Q1319.01 282.25 1324.22 284.08Q1329.43 285.91 1336.76 285.91L1336.76 285.91Q1344.55 285.91 1350.50 283.39Q1356.46 280.88 1360.41 276.35Q1364.36 271.83 1366.36 265.59Q1368.36 259.35 1368.36 252.02L1368.36 252.02Q1368.36 238.51 1360.52 230.90Q1352.68 223.28 1337.33 223.28L1337.33 223.28Q1325.54 223.28 1313.18 227.63L1313.18 227.63L1295.54 222.60L1309.28 142.22L1391.04 142.22L1391.04 154.24Q1391.04 160.31 1387.26 164.09Q1383.48 167.86 1374.43 167.86L1374.43 167.86L1328.98 167.86ZM1536.56 225L1536.56 225Q1536.56 246.64 1531.93 262.61Q1527.29 278.59 1519.10 289.01Q1510.92 299.43 1499.75 304.52Q1488.59 309.62 1475.65 309.62L1475.65 309.62Q1462.71 309.62 1451.66 304.52Q1440.61 299.43 1432.48 289.01Q1424.35 278.59 1419.77 262.61Q1415.19 246.64 1415.19 225L1415.19 225Q1415.19 203.25 1419.77 187.33Q1424.35 171.41 1432.48 160.99Q1440.61 150.57 1451.66 145.48Q1462.71 140.38 1475.65 140.38L1475.65 140.38Q1488.59 140.38 1499.75 145.48Q1510.92 150.57 1519.10 160.99Q1527.29 171.41 1531.93 187.33Q1536.56 203.25 1536.56 225ZM1507.37 225L1507.37 225Q1507.37 207.02 1504.73 195.23Q1502.10 183.44 1497.69 176.45Q1493.28 169.47 1487.56 166.66Q1481.83 163.86 1475.65 163.86L1475.65 163.86Q1469.58 163.86 1463.91 166.66Q1458.25 169.47 1453.90 176.45Q1449.54 183.44 1446.97 195.23Q1444.39 207.02 1444.39 225L1444.39 225Q1444.39 242.98 1446.97 254.77Q1449.54 266.56 1453.90 273.55Q1458.25 280.53 1463.91 283.34Q1469.58 286.14 1475.65 286.14L1475.65 286.14Q1481.83 286.14 1487.56 283.34Q1493.28 280.53 1497.69 273.55Q1502.10 266.56 1504.73 254.77Q1507.37 242.98 1507.37 225Z" fill="#999999"/></svg>